<?xml version="1.0" standalone="no"?>
<!DOCTYPE svg PUBLIC "-//W3C//DTD SVG 20010904//EN"
 "http://www.w3.org/TR/2001/REC-SVG-20010904/DTD/svg10.dtd">
<svg version="1.0" xmlns="http://www.w3.org/2000/svg"
 width="1764.000000pt" height="588.000000pt" viewBox="0 0 1764.000000 588.000000"
 preserveAspectRatio="xMidYMid meet">
<metadata>
Created by potrace 1.15, written by Peter Selinger 2001-2017
</metadata>
<g transform="translate(0.000000,588.000000) scale(0.100000,-0.100000)"
fill="#000000" stroke="none">
<path d="M10957 4779 c7 -7 35 -11 64 -10 28 1 57 -3 64 -9 7 -6 55 -15 106
-21 52 -6 146 -23 209 -40 63 -16 135 -34 160 -40 25 -7 54 -16 66 -21 11 -5
56 -20 100 -32 75 -22 79 -25 82 -54 4 -41 24 -56 66 -48 41 8 60 28 51 55 -7
25 -127 85 -250 126 -27 10 -57 20 -65 23 -24 9 -105 27 -240 55 -98 19 -158
25 -275 26 -115 1 -147 -1 -138 -10z"/>
<path d="M10210 4760 c-14 -4 -40 -5 -58 -2 -27 4 -31 2 -26 -12 3 -9 16 -16
28 -16 11 -1 66 -5 121 -11 55 -6 159 -12 230 -14 72 -2 147 -7 167 -11 47 -8
70 0 61 22 -5 13 -16 15 -57 11 -29 -2 -70 2 -96 10 -25 8 -92 16 -150 19 -58
2 -125 6 -150 7 -25 2 -56 0 -70 -3z"/>
<path d="M8320 4698 c-30 -16 -56 -34 -58 -39 -2 -5 -14 -9 -27 -9 -13 0 -25
-5 -27 -11 -2 -6 -16 -13 -31 -14 -16 -2 -33 -7 -40 -12 -13 -10 -96 -42 -162
-63 -22 -7 -47 -18 -55 -26 -8 -7 -28 -11 -43 -10 -49 6 -63 -18 -67 -116 -1
-10 -5 -20 -11 -23 -5 -4 -9 -14 -9 -25 0 -13 -5 -17 -21 -13 -21 6 -22 23 -4
67 6 13 5 17 -2 13 -6 -4 -13 -3 -15 3 -2 6 -13 4 -28 -3 -21 -11 -25 -20 -25
-57 0 -58 -9 -70 -51 -70 l-35 0 2 60 c1 34 -2 65 -8 71 -16 16 -22 0 -29 -73
-4 -34 -11 -69 -17 -75 -5 -7 -26 -13 -47 -13 -43 0 -50 12 -50 93 0 26 -4 47
-10 47 -5 0 -10 -3 -11 -7 0 -5 -3 -35 -5 -67 -2 -33 -9 -65 -15 -72 -15 -18
-55 -25 -83 -14 -18 7 -35 5 -62 -6 -20 -8 -52 -14 -72 -12 -30 3 -37 8 -44
33 -4 17 -3 34 2 39 15 15 12 46 -4 46 -9 0 -15 -18 -19 -56 -3 -31 -10 -61
-15 -66 -5 -5 -47 -11 -93 -13 -46 -2 -108 -8 -137 -13 -29 -5 -55 -5 -58 -1
-10 17 -23 9 -19 -12 3 -16 0 -19 -15 -14 -10 3 -30 3 -44 -1 -33 -8 -35 -41
-3 -46 16 -3 12 -6 -18 -12 -69 -13 -73 -16 -51 -32 11 -8 16 -14 10 -14 -5
-1 6 -7 25 -15 27 -12 183 -26 286 -25 99 1 256 9 281 15 39 9 64 -13 57 -49
-3 -14 -9 -26 -14 -26 -5 0 -6 -13 -3 -30 4 -20 1 -34 -10 -46 -9 -9 -18 -15
-19 -13 -7 10 -31 65 -32 74 -3 20 -17 45 -26 45 -15 0 -28 -43 -17 -57 6 -7
5 -14 -2 -18 -5 -3 -10 -19 -10 -36 0 -24 -4 -29 -25 -29 -25 0 -29 8 -26 43
1 9 -3 17 -9 17 -8 0 -10 9 -6 24 7 30 -16 53 -33 32 -6 -7 -8 -21 -5 -30 4
-10 -1 -25 -12 -38 -14 -15 -16 -22 -6 -25 6 -3 12 -10 12 -17 0 -9 21 -15 63
-18 46 -4 86 -16 143 -43 72 -35 86 -38 154 -37 127 3 234 14 247 27 6 7 56
18 110 26 63 9 89 15 73 19 -31 7 -39 44 -13 55 10 3 50 9 89 12 l72 6 188
-81 c104 -44 203 -85 220 -92 34 -12 55 -43 51 -75 -2 -18 5 -20 88 -23 49 -2
92 -6 95 -10 3 -4 30 -20 60 -36 30 -16 63 -36 73 -44 15 -13 17 -13 17 -1 0
8 -5 20 -11 26 -8 8 -5 17 9 31 24 24 19 34 -12 22 -31 -11 -53 21 -26 38 15
9 19 8 22 -3 2 -9 8 -11 16 -6 10 6 8 15 -12 38 -20 24 -24 37 -20 71 13 129
13 122 -7 122 -10 0 -19 7 -19 15 0 8 7 15 16 15 11 0 14 8 12 33 -2 26 -9 34
-35 42 -18 5 -33 13 -33 17 0 4 -16 8 -36 8 -21 0 -33 4 -29 10 3 5 36 8 73 6
l67 -3 -45 12 c-55 14 -81 25 -97 41 -18 17 -16 41 3 48 8 3 12 10 9 16 -8 13
8 13 21 0 14 -14 54 16 54 41 0 12 -4 17 -11 14 -6 -4 -19 2 -30 14 -11 12
-26 21 -35 21 -8 0 -17 7 -20 15 -4 8 -16 15 -28 15 -21 0 -86 34 -86 45 0 3
17 3 37 -1 l36 -7 -21 23 c-15 17 -27 21 -46 16 -20 -5 -26 -3 -26 9 0 11 6
14 24 9 18 -4 32 0 48 16 l23 22 -29 21 c-16 12 -46 39 -67 60 -32 31 -39 45
-39 77 0 33 -4 40 -19 40 -23 0 -41 45 -34 82 4 19 -1 30 -18 42 -29 20 -23
21 -89 -16z m-650 -657 c3 -1 -3 -8 -14 -16 -12 -9 -25 -11 -35 -6 -17 9 -55
-1 -66 -18 -3 -6 -1 -11 6 -11 8 0 8 -4 -1 -15 -18 -22 -44 -18 -55 7 -12 26
-44 36 -56 17 -8 -13 -24 -108 -21 -121 1 -5 -7 -8 -18 -8 -13 0 -20 7 -20 19
0 11 -3 26 -6 35 -4 11 -1 16 10 16 14 0 14 3 4 20 -9 14 -14 16 -20 7 -4 -7
-8 2 -8 22 0 19 7 39 15 45 13 9 260 15 285 7z"/>
<path d="M10968 4714 c-38 -11 -26 -31 25 -43 29 -6 104 -22 167 -36 121 -27
205 -48 282 -71 55 -16 58 -17 58 -5 0 14 -104 78 -140 86 -19 4 -51 14 -70
22 -55 22 -288 56 -322 47z"/>
<path d="M8712 4638 c-7 -7 -12 -17 -12 -22 0 -12 -54 -51 -85 -62 -41 -14
-55 -34 -43 -60 12 -27 40 -37 84 -32 26 3 29 7 27 36 -1 18 2 30 8 27 5 -4 9
-2 9 4 0 5 -5 11 -11 13 -14 5 71 88 89 88 7 0 10 5 7 10 -9 14 -58 13 -73 -2z"/>
<path d="M10330 4622 c-39 -2 -231 -31 -315 -47 -16 -4 -57 -15 -90 -25 -33
-11 -71 -21 -85 -23 -14 -2 -46 -13 -71 -24 -25 -12 -78 -30 -117 -41 -40 -11
-79 -27 -87 -35 -8 -9 -28 -18 -43 -22 -49 -10 -144 -52 -134 -59 17 -10 144
-34 267 -50 207 -26 439 -38 755 -37 303 1 449 10 630 37 52 7 107 14 122 14
22 0 25 4 21 21 -5 19 -3 20 18 14 54 -17 90 -8 50 13 -46 23 -60 68 -25 76
28 7 32 24 7 23 -34 -1 -98 15 -108 28 -11 13 -120 40 -220 55 -84 13 -238 45
-251 53 -21 13 -253 34 -324 29z"/>
<path d="M12231 4233 c0 -26 -6 -56 -15 -76 -5 -9 -4 -72 1 -140 5 -71 5 -155
0 -202 -7 -57 -6 -80 2 -83 6 -2 11 -14 11 -27 0 -13 5 -27 10 -30 6 -3 10
-21 10 -40 0 -25 -8 -41 -35 -66 -19 -19 -35 -39 -35 -47 0 -7 -7 -15 -15 -18
-8 -4 -15 -14 -15 -23 0 -19 -17 -29 -92 -56 -56 -19 -98 -51 -83 -62 19 -15
13 -57 -11 -76 -13 -10 -24 -24 -24 -30 -1 -15 -46 -67 -58 -67 -12 0 -42 -34
-42 -47 0 -6 9 -13 21 -16 15 -4 19 -11 15 -25 -5 -14 -1 -21 14 -25 13 -3 22
-17 26 -36 4 -17 13 -36 20 -42 8 -6 14 -18 14 -25 0 -8 4 -14 9 -14 5 0 14
-15 21 -32 16 -39 39 -68 54 -68 7 0 6 4 -2 8 -10 7 -9 16 3 45 12 30 21 37
43 37 15 0 44 3 65 6 l37 7 0 58 c0 33 -4 59 -10 59 -5 0 -10 11 -10 25 0 16
6 25 15 25 8 0 15 7 15 15 0 8 5 15 10 15 6 0 10 36 10 89 0 99 -5 92 83 115
44 12 47 12 47 -5 0 -20 17 -23 58 -13 25 7 31 44 7 44 -8 0 -15 2 -15 5 0 12
61 65 75 65 9 0 14 4 11 9 -4 5 7 12 24 16 25 6 30 11 30 37 0 27 -2 29 -28
23 -27 -6 -28 -4 -24 25 4 30 4 30 -42 30 -25 0 -46 5 -46 10 0 6 15 10 33 10
17 0 49 3 70 6 37 7 37 7 37 55 l0 49 45 0 45 0 0 -66 0 -66 63 7 c34 4 64 9
66 11 2 1 5 36 6 76 2 40 4 76 4 81 1 4 31 7 67 7 46 0 70 5 81 15 8 9 28 19
44 22 20 4 29 12 29 24 0 12 7 19 20 19 11 0 20 5 20 10 0 6 -6 10 -14 10 -8
0 -17 12 -19 28 -4 25 -4 25 -6 -5 -1 -32 -3 -33 -42 -33 -24 0 -38 -4 -34
-10 10 -16 -5 -50 -21 -50 -8 0 -14 5 -14 10 0 15 -19 12 -36 -5 -9 -8 -27
-15 -40 -15 -23 0 -24 2 -10 15 8 8 19 15 25 15 6 0 11 7 11 15 0 8 6 15 13
15 9 0 9 3 -1 9 -8 5 -14 24 -15 44 -1 50 25 77 75 77 27 0 38 4 38 15 0 8 7
15 15 15 8 0 15 5 15 10 0 6 7 10 15 10 8 0 15 7 15 15 0 8 7 15 15 15 16 0
20 -27 6 -49 -5 -7 -14 -11 -20 -7 -7 5 -9 1 -5 -8 8 -21 20 -20 60 5 21 12
31 25 27 35 -4 10 3 14 26 14 17 0 31 -4 31 -10 0 -5 7 -10 15 -10 28 0 12
-35 -20 -43 -16 -4 -14 -5 7 -6 14 0 29 5 32 12 3 8 8 7 16 -6 8 -13 20 -16
43 -13 18 3 53 8 80 11 41 5 45 8 33 21 -17 16 -36 19 -36 4 0 -5 -18 -10 -40
-10 -29 0 -40 4 -40 15 0 10 10 15 33 15 l32 0 -28 15 c-16 8 -36 14 -45 13
-32 -2 -52 2 -52 12 0 14 27 12 33 -2 4 -10 8 -9 16 2 20 29 4 35 -95 38 -90
3 -97 1 -79 -12 19 -14 19 -15 2 -16 -25 0 -51 26 -34 34 6 4 1 4 -13 1 -14
-2 -33 -5 -42 -5 -24 0 -45 -40 -27 -51 9 -6 0 -9 -27 -9 -34 0 -43 4 -47 22
-8 30 -1 38 39 38 19 0 34 5 34 10 0 6 -11 10 -25 10 -14 0 -25 5 -25 10 0 15
-77 12 -84 -2 -3 -9 -8 -8 -16 5 -9 14 -19 17 -37 12 -16 -4 -35 0 -51 11 -18
12 -27 13 -30 6 -5 -17 -32 -15 -32 3 0 11 -12 15 -45 15 -34 0 -45 4 -45 16
0 12 -7 14 -29 9 -16 -3 -54 0 -85 8 -31 9 -56 11 -56 6 0 -12 -47 -11 -55 1
-3 6 -21 10 -40 10 -25 0 -34 -4 -34 -17z"/>
<path d="M9829 4060 c-9 -12 -19 -38 -23 -59 -4 -27 -12 -40 -26 -44 -26 -7
-26 -39 0 -62 25 -23 25 -35 1 -35 -27 0 -35 -17 -14 -28 16 -9 16 -11 -1 -27
-16 -16 -16 -18 1 -31 17 -12 16 -13 -9 -14 -18 0 -28 -5 -28 -15 0 -8 7 -15
15 -15 9 0 15 -9 15 -25 0 -14 -4 -25 -8 -25 -5 0 -14 -17 -20 -37 -9 -29 -9
-39 1 -46 9 -7 9 -10 0 -14 -7 -2 -13 -11 -13 -19 0 -8 6 -14 13 -15 6 0 2 -4
-10 -9 -27 -11 -42 -58 -22 -71 8 -5 18 -10 22 -11 13 -5 -14 -68 -29 -68 -8
0 -14 5 -14 10 0 6 7 10 15 10 8 0 15 5 15 10 0 6 -9 10 -20 10 -19 0 -34 -31
-29 -61 4 -21 -12 -71 -32 -105 l-19 -32 40 -16 c22 -9 50 -16 62 -16 12 0 40
-6 63 -14 22 -8 53 -17 68 -21 36 -7 25 -25 -16 -26 -36 0 -42 2 93 -48 190
-72 222 -88 260 -122 30 -28 38 -41 33 -59 l-6 -23 174 7 c201 8 359 21 444
36 33 5 81 13 107 16 26 4 53 13 59 20 6 8 18 14 25 14 8 0 14 7 14 15 0 8 9
15 19 15 10 0 33 12 50 27 33 29 42 60 15 49 -8 -3 -43 3 -77 13 -34 11 -89
22 -121 25 -68 7 -69 8 -61 28 5 13 162 68 193 68 6 0 12 4 12 9 0 5 -19 12
-42 16 -63 10 -79 15 -73 26 4 5 17 9 31 9 13 0 24 4 24 9 0 5 12 12 28 14 25
4 25 4 -5 6 -18 0 -33 6 -33 12 0 7 14 10 35 7 19 -2 35 0 35 4 0 4 -13 8 -28
8 -37 0 -54 17 -42 41 12 22 6 26 -47 25 -43 -2 -56 7 -29 17 8 3 23 3 34 1
14 -4 21 0 25 15 3 11 18 26 34 33 l28 12 -28 4 c-18 2 -32 12 -40 29 -10 22
-8 28 12 44 13 11 29 19 37 19 8 0 14 5 14 11 0 5 -4 8 -9 4 -5 -3 -16 2 -24
10 -21 21 -27 19 -27 -10 0 -29 -12 -32 -31 -9 -11 14 -11 18 4 29 9 7 17 18
17 24 0 8 5 7 16 -3 20 -20 34 -20 34 -1 0 8 -7 15 -16 15 -10 0 -14 6 -10 15
3 8 1 15 -5 15 -11 0 -39 25 -39 34 0 3 12 12 28 20 25 14 26 15 5 16 -19 0
-23 6 -23 30 0 17 5 30 10 30 6 0 10 9 10 20 0 11 5 20 10 20 16 0 11 27 -6
34 -10 4 -13 13 -9 26 8 25 -3 80 -16 80 -5 0 -9 -6 -9 -14 0 -18 -36 -10 -44
10 -6 16 -1 20 46 28 47 8 55 21 26 38 -17 9 -94 13 -278 14 -140 0 -388 4
-550 8 -294 8 -295 8 -311 -14z"/>
<path d="M7004 3963 c4 -7 2 -13 -3 -13 -6 0 -11 -15 -11 -34 0 -20 -8 -42
-17 -52 -13 -13 -15 -18 -5 -22 10 -3 10 -7 2 -18 -23 -27 -80 34 -80 86 0 11
-4 20 -10 20 -5 0 -10 -11 -10 -24 0 -13 -3 -37 -6 -54 l-6 -31 -64 6 c-53 5
-68 3 -85 -12 -15 -14 -39 -19 -102 -21 -122 -4 -227 -15 -227 -24 0 -7 96
-19 315 -37 l90 -8 5 -68 c4 -52 1 -71 -10 -83 -13 -13 -12 -14 10 -11 13 2
26 10 29 18 6 21 102 118 123 125 10 3 18 10 18 16 0 10 57 88 74 100 5 3 -2
8 -15 10 -22 4 -22 5 -5 13 13 6 22 3 31 -8 13 -18 45 -23 45 -7 0 6 -5 10
-10 10 -23 0 -51 39 -53 73 -2 20 -9 42 -16 49 -11 10 -12 10 -7 1z"/>
<path d="M5133 3920 c10 -7 25 -9 33 -6 8 3 14 2 14 -2 0 -4 20 -6 45 -4 25 2
51 0 58 -6 13 -11 141 -49 172 -51 11 -1 58 -3 105 -6 84 -5 85 -4 50 11 -19
9 -51 18 -70 21 -19 3 -42 7 -50 10 -8 4 -17 7 -20 8 -3 1 -12 5 -21 9 -20 9
-82 15 -224 22 -84 4 -106 2 -92 -6z"/>
<path d="M5198 3655 c-3 -4 -3 -19 2 -34 4 -16 4 -35 -1 -42 -12 -20 -11 -29
4 -29 7 0 30 -9 52 -20 22 -11 45 -20 51 -20 7 0 32 -15 57 -34 24 -19 55 -37
68 -41 13 -4 30 -12 38 -18 7 -6 23 -16 35 -22 14 -7 23 -24 28 -50 32 -188
33 -194 16 -223 -14 -23 -14 -30 -3 -46 12 -16 22 -18 62 -12 26 3 143 6 258
6 l210 1 2 26 c0 16 -2 21 -7 14 -5 -9 -9 -2 -12 18 -2 17 0 31 5 31 5 0 4 6
-2 14 -7 8 -20 12 -30 9 -11 -3 -21 2 -24 11 -4 11 -1 16 11 17 9 0 2 5 -17
10 -31 10 -32 11 -15 24 18 14 18 14 1 15 -10 0 -15 5 -12 10 4 6 24 9 45 7
21 -2 51 1 67 8 19 8 43 9 73 3 43 -8 46 -7 70 23 54 67 108 115 163 143 31
17 54 32 51 35 -2 3 -64 4 -137 3 -221 -5 -541 37 -872 113 -38 9 -97 23 -130
30 -33 8 -69 17 -80 20 -11 3 -23 3 -27 0z m825 -266 c12 -7 25 -17 29 -23 9
-13 -1 -48 -16 -58 -17 -12 -102 -9 -131 4 -33 15 -35 60 -2 76 30 14 93 15
120 1z"/>
<path d="M6453 2862 c-28 -28 -88 -62 -111 -62 -11 0 -24 -4 -27 -10 -3 -5
-19 -10 -35 -10 -46 0 -80 -17 -80 -40 0 -15 -7 -20 -25 -20 -16 0 -25 6 -25
15 0 9 -9 15 -24 15 -19 0 -25 -6 -28 -30 -3 -23 -1 -30 12 -30 9 0 21 5 26
10 6 6 25 7 42 4 25 -5 32 -12 32 -29 0 -23 -24 -40 -41 -29 -5 3 -9 12 -9 20
0 26 -43 12 -50 -16 -5 -20 -12 -25 -35 -25 -19 0 -29 5 -27 13 1 7 -8 12 -22
12 -18 0 -26 -6 -28 -22 -2 -14 -12 -24 -28 -28 -16 -4 -21 -8 -13 -13 7 -5
21 -4 30 1 10 4 43 7 73 6 30 -2 59 1 65 5 5 5 35 11 65 14 88 10 106 13 118
21 7 4 37 14 68 22 73 19 122 56 130 100 7 39 22 49 79 53 46 3 98 27 90 41
-4 6 -44 10 -90 10 -46 0 -87 5 -90 10 -9 15 -22 12 -42 -8z"/>
<path d="M8575 2741 c-129 -27 -221 -63 -210 -81 3 -5 -9 -13 -25 -19 -17 -5
-30 -15 -30 -21 0 -7 -20 -35 -45 -63 -25 -29 -45 -57 -45 -63 0 -7 -7 -14
-15 -18 -8 -3 -15 -10 -15 -16 0 -6 -15 -23 -32 -39 l-33 -29 -241 5 -241 4
-47 -40 c-26 -23 -51 -41 -57 -41 -5 0 -9 -7 -9 -15 0 -8 -4 -15 -10 -15 -5 0
-10 -9 -10 -20 0 -11 -7 -20 -15 -20 -9 0 -15 -9 -15 -24 0 -13 -4 -26 -8 -28
-17 -7 -52 -77 -52 -102 0 -16 -4 -25 -10 -21 -6 3 -13 -2 -16 -12 -10 -32
-39 -87 -51 -101 -7 -7 -13 -22 -13 -32 0 -10 -4 -22 -10 -25 -5 -3 -10 -13
-10 -22 0 -9 -7 -24 -16 -34 -9 -10 -14 -22 -13 -28 2 -5 40 17 84 50 44 33
107 76 140 95 33 19 89 53 124 74 34 22 66 40 70 40 5 0 16 9 26 20 10 11 24
20 31 20 7 0 29 14 47 30 19 17 41 30 48 30 12 0 50 13 139 46 12 5 11 8 -5
15 -13 5 0 6 33 2 35 -4 52 -2 52 6 0 6 -4 11 -10 11 -5 0 -10 9 -10 20 0 16
7 20 30 20 20 0 30 -5 30 -15 0 -19 4 -19 70 5 30 11 66 20 80 20 14 0 31 5
37 11 11 11 64 20 223 38 41 5 94 14 118 20 24 7 74 13 113 13 38 1 69 5 69 9
0 4 29 7 65 7 36 0 80 4 98 8 l32 8 -30 6 c-16 3 -50 2 -75 -3 -31 -7 -45 -6
-48 2 -5 16 -30 13 -40 -5 -6 -11 -16 -14 -32 -9 -34 11 -8 29 43 31 97 2 188
34 98 34 -22 0 -43 -4 -46 -10 -8 -13 -52 -7 -97 13 -21 9 -63 17 -95 17 -64
1 -126 25 -131 52 -2 10 10 34 27 55 32 41 53 87 44 97 -4 3 -15 6 -25 6 -11
0 -16 5 -13 10 3 6 14 10 24 10 9 0 26 7 37 15 23 17 21 17 -81 -4z"/>
<path d="M11306 2711 c-3 -5 -7 -40 -8 -79 -3 -100 0 -102 136 -101 92 1 203
14 159 18 -7 0 -13 7 -13 15 0 15 -10 19 -67 31 -21 4 -30 11 -27 20 7 18 -31
42 -79 51 -22 3 -41 14 -45 23 -10 28 -44 41 -56 22z"/>
<path d="M13955 2588 c-16 -5 -36 -11 -43 -14 -9 -2 -7 -9 7 -23 12 -12 17
-27 14 -39 -2 -11 0 -23 6 -26 6 -4 11 -18 11 -30 0 -19 4 -22 23 -19 12 2 33
0 47 -6 l25 -10 -28 0 c-15 -1 -46 -10 -67 -20 -39 -19 -39 -19 -45 0 -7 20
-35 27 -35 8 0 -13 -52 -8 -56 6 -4 11 58 45 81 45 7 0 15 -6 18 -12 2 -7 7
-10 11 -6 4 3 2 16 -4 28 -11 20 -18 22 -56 16 -24 -3 -55 -1 -70 4 -31 12
-83 2 -62 -12 9 -6 6 -7 -10 -3 -13 4 -32 1 -45 -8 -12 -7 -49 -22 -82 -32
-33 -10 -69 -24 -80 -32 -11 -7 -29 -13 -40 -13 -12 0 -25 -4 -31 -8 -5 -5
-43 -21 -84 -36 -69 -25 -120 -47 -242 -105 -26 -12 -63 -25 -83 -28 -19 -3
-35 -9 -35 -13 0 -4 -9 -10 -21 -13 -12 -3 -18 -10 -14 -17 5 -7 -2 -9 -20 -4
-17 4 -32 1 -43 -9 -9 -8 -35 -20 -57 -27 -22 -7 -51 -19 -65 -26 -14 -7 -56
-23 -94 -34 -38 -11 -75 -25 -81 -30 -7 -6 -44 -21 -82 -35 -38 -13 -105 -40
-147 -59 -43 -20 -85 -36 -94 -36 -8 0 -23 -7 -32 -15 -9 -8 -47 -26 -84 -39
-37 -12 -72 -28 -79 -35 -6 -6 -22 -11 -36 -11 -15 -1 -37 -7 -51 -15 -14 -8
-37 -14 -52 -15 -18 0 -28 -5 -28 -15 0 -8 -8 -15 -17 -15 -30 0 -379 -136
-538 -210 -69 -32 -77 -52 -13 -31 35 11 89 2 95 -16 2 -6 -3 -18 -12 -26 -18
-19 -20 -31 -2 -21 7 5 5 -2 -4 -16 -14 -21 -23 -24 -55 -22 -45 4 -37 -8 16
-26 55 -18 414 -78 550 -92 73 -7 133 -17 255 -41 72 -14 151 -26 225 -34 30
-4 64 -10 75 -15 11 -5 43 -11 70 -14 28 -3 109 -16 180 -30 72 -14 142 -26
157 -26 15 0 30 -4 33 -10 3 -5 23 -10 43 -10 20 -1 66 -7 102 -15 36 -8 86
-14 111 -15 26 0 60 -7 75 -15 16 -8 46 -15 66 -15 20 0 48 -4 62 -10 14 -5
58 -14 98 -19 40 -6 136 -21 213 -35 154 -28 337 -61 430 -77 33 -6 80 -15
105 -20 242 -49 243 -49 272 -29 15 11 30 20 34 20 10 0 137 60 152 72 9 8 9
14 1 24 -8 10 -8 14 -1 14 6 0 14 -4 17 -10 9 -14 31 -12 48 4 18 19 88 56
104 56 7 0 13 4 13 9 0 5 -9 7 -20 4 -11 -3 -20 0 -20 6 0 6 6 11 14 11 8 0
22 3 32 7 12 4 15 3 10 -5 -4 -8 0 -12 10 -12 14 0 15 3 6 12 -7 7 -12 16 -12
20 0 13 28 9 33 -4 3 -10 13 -8 38 6 19 10 46 25 62 33 15 8 25 18 22 23 -3 4
4 6 15 3 11 -3 20 0 20 6 0 6 -4 11 -10 11 -5 0 -10 5 -10 11 0 6 11 8 29 4
19 -4 43 1 74 16 41 20 44 24 29 36 -15 12 -14 13 10 7 37 -8 71 4 64 23 -5
12 -1 14 14 10 13 -3 24 1 30 14 6 10 17 19 24 19 8 0 19 7 26 15 7 8 25 15
40 15 15 0 38 9 51 21 23 19 23 20 2 10 -28 -14 -83 -14 -83 -1 0 6 17 10 38
10 21 0 47 6 57 14 10 7 26 11 36 9 19 -5 79 23 79 36 0 5 -6 12 -12 14 -8 3
-6 6 5 6 9 1 17 -3 17 -9 0 -15 26 -12 42 4 8 7 25 17 38 21 14 4 33 14 42 22
9 8 22 12 27 8 6 -3 11 1 11 9 0 9 7 16 16 16 9 0 39 12 67 28 l50 27 -29 6
c-26 6 -24 7 13 8 23 0 45 6 48 11 4 6 11 8 16 5 5 -4 9 -2 9 2 0 10 58 33 83
33 9 0 17 6 17 14 0 8 13 17 29 21 15 3 37 14 48 25 11 10 33 20 49 22 17 2
28 8 26 16 -1 6 1 11 5 11 23 -4 43 2 41 12 -2 6 7 13 20 15 29 5 77 35 123
77 21 19 39 22 39 7 0 -5 5 -10 10 -10 19 0 10 17 -15 30 -16 8 -22 17 -16 23
6 6 18 3 32 -7 27 -18 57 -20 79 -5 12 8 10 9 -7 4 -23 -6 -32 8 -13 20 6 4 8
15 5 25 -7 23 23 34 58 21 21 -8 30 -6 52 15 20 18 32 23 53 17 24 -6 26 -5
13 10 -12 15 -11 17 6 17 16 0 19 6 18 30 -1 17 2 30 7 30 18 0 6 21 -17 30
-17 7 -33 6 -52 -3 -21 -9 -27 -9 -31 1 -2 6 -10 12 -18 12 -8 0 -22 9 -31 20
-10 11 -30 20 -45 20 -16 0 -28 5 -28 10 0 6 7 10 16 10 13 0 15 6 9 27 -8 33
-23 45 -50 38 -21 -5 -115 25 -115 37 0 4 -27 5 -61 2 -42 -4 -59 -2 -54 5 4
7 -9 11 -37 12 -24 0 -74 3 -113 6 -38 3 -85 6 -102 5 -34 -1 -41 6 -22 25 7
7 -9 12 -53 17 -35 3 -76 8 -93 11 -73 13 -205 17 -205 7 0 -6 -28 -10 -70
-10 -67 1 -70 2 -70 24 0 15 -6 24 -15 24 -8 0 -15 -4 -15 -8 0 -4 -25 -8 -55
-9 -30 -1 -55 3 -55 8 0 5 6 9 13 10 6 0 0 5 -15 11 -16 5 -28 13 -28 18 0 4
-20 5 -45 2 -31 -3 -45 -1 -45 7 0 9 -10 11 -30 7 -16 -3 -44 -9 -60 -12 -18
-3 -27 -10 -24 -16 5 -7 -2 -9 -19 -4 -20 5 -29 1 -41 -15 -15 -22 -36 -18
-36 7 0 8 9 14 19 14 26 0 51 10 51 21 0 4 -7 5 -17 2 -11 -4 -14 -3 -9 6 6 8
1 10 -18 5 -14 -3 -42 0 -62 6 -28 10 -39 10 -42 1 -2 -6 -15 -11 -28 -11 -13
0 -24 -4 -24 -10 0 -5 -11 -10 -25 -10 -40 0 -29 -20 13 -21 30 -2 32 -3 10
-6 -16 -2 -28 -8 -28 -12 0 -3 -27 -7 -60 -8 -45 -2 -60 1 -60 12 0 8 5 17 10
20 6 4 8 11 5 16 -4 5 0 9 7 10 31 1 -92 28 -128 27 -21 0 -56 3 -76 7 -26 5
-38 4 -38 -4 0 -6 -13 -11 -30 -11 -16 0 -30 5 -30 11 0 19 28 39 57 39 22 0
25 2 13 10 -8 5 -31 10 -51 10 -19 0 -40 5 -47 12 -7 7 -33 13 -59 14 -27 1
-60 5 -75 8 -21 5 -28 3 -28 -9 0 -9 9 -15 23 -16 12 0 16 -3 10 -6 -27 -10
-11 -23 27 -23 30 0 40 -4 40 -16 0 -14 -9 -16 -52 -12 -29 3 -54 11 -56 17
-2 6 -11 11 -20 11 -12 0 -11 -4 7 -16 18 -13 20 -18 10 -25 -11 -8 -11 -12 4
-23 13 -10 28 -11 55 -5 47 11 52 11 52 0 0 -5 -8 -12 -17 -14 -17 -4 -17 -5
0 -6 27 -2 20 -27 -12 -41 -22 -9 -27 -16 -24 -31 3 -11 11 -18 17 -16 7 3 13
-4 13 -14 2 -16 -3 -18 -25 -13 -15 4 -33 11 -39 17 -9 6 -13 5 -14 -4 0 -8
-5 -4 -11 9 -6 12 -22 25 -35 28 -32 8 -29 26 5 24 48 -4 62 0 62 14 0 8 5 16
12 18 9 3 9 6 0 12 -7 4 -12 2 -12 -3 0 -14 -27 -14 -32 -2 -4 14 -106 21
-111 8 -2 -6 -11 -8 -20 -4 -21 8 -23 55 -2 63 8 4 15 17 15 30 0 15 -6 24
-15 24 -8 0 -15 5 -15 10 0 6 -11 10 -24 10 -14 0 -28 -4 -31 -10 -3 -5 -21
-10 -38 -10 -32 1 -32 1 -8 14 31 17 7 27 -34 14z"/>
<path d="M6693 2580 c-39 -4 -77 -11 -83 -15 -14 -9 -45 -12 -175 -21 -55 -3
-125 -13 -155 -20 -30 -8 -82 -14 -117 -14 -75 0 -135 -22 -153 -55 -12 -22
-10 -29 13 -62 14 -21 33 -59 42 -86 16 -49 22 -175 10 -214 -8 -24 -29 -30
-40 -13 -9 15 -35 -7 -29 -23 2 -7 -9 -27 -26 -45 -28 -31 -33 -33 -62 -23
-17 6 -45 11 -63 11 -18 0 -46 5 -64 11 -24 8 -39 8 -61 -1 -43 -18 -37 -29
13 -24 30 3 35 1 17 -4 -34 -11 -9 -26 29 -17 26 5 29 4 24 -13 -5 -20 -32
-27 -153 -38 -25 -3 -81 -8 -125 -13 -44 -5 -106 -7 -137 -4 -31 3 -70 2 -85
-2 l-28 -7 30 -15 c45 -24 249 -19 352 8 43 12 92 24 108 29 17 4 47 15 68 23
28 12 44 14 57 7 26 -14 43 -12 37 3 -4 10 2 13 21 9 23 -5 25 -3 14 10 -11
13 -7 19 24 37 38 23 63 21 91 -7 10 -11 33 -17 61 -17 52 -1 72 -21 72 -72 0
-31 -50 -141 -83 -184 -15 -20 -122 -89 -137 -89 -6 0 -9 -4 -6 -9 8 -12 -20
-22 -39 -15 -8 3 -26 -6 -40 -20 -14 -14 -29 -26 -33 -26 -10 0 -79 -35 -95
-48 -41 -32 -303 -74 -318 -50 -7 12 -157 0 -164 -12 -7 -11 10 -21 49 -31 25
-6 26 -7 8 -8 -22 -1 -23 -2 -6 -18 10 -10 31 -22 48 -28 33 -11 47 -42 24
-56 -10 -6 -8 -9 8 -9 11 0 25 5 32 12 14 14 13 14 17 -29 1 -18 -1 -33 -6
-33 -5 0 -9 5 -9 10 0 6 -7 10 -16 10 -10 0 -14 -7 -12 -22 3 -20 -1 -23 -24
-20 -22 2 -28 -1 -28 -17 0 -11 7 -24 15 -28 12 -7 13 -16 4 -46 -5 -20 -16
-40 -23 -44 -8 -5 -11 -21 -8 -46 4 -34 7 -38 26 -35 19 4 22 1 18 -21 -8 -44
-21 -52 -45 -28 -13 13 -17 22 -9 25 7 2 10 8 6 13 -3 5 -12 2 -20 -6 -14 -13
-14 -18 0 -47 14 -28 14 -34 1 -54 -11 -18 -12 -24 -2 -33 9 -7 11 -26 8 -58
-5 -41 -10 -49 -29 -51 -13 -2 -26 -10 -29 -18 -9 -23 4 -28 29 -10 25 18 48
21 48 6 0 -18 -51 -85 -71 -92 -31 -12 -22 -25 23 -34 28 -6 44 -15 46 -27 5
-26 -44 -23 -51 3 -3 13 -10 18 -21 14 -23 -9 -20 -18 23 -63 39 -41 39 -41
15 -47 -19 -5 -24 -13 -24 -36 0 -16 -7 -42 -15 -59 -14 -26 -14 -32 -2 -50
14 -19 15 -19 21 15 8 41 36 58 36 21 0 -14 -4 -25 -10 -25 -5 0 -7 -7 -4 -15
4 -8 1 -15 -5 -15 -17 0 -13 -60 4 -66 8 -4 15 -12 15 -20 0 -16 -26 -19 -35
-4 -8 13 -25 13 -25 0 0 -6 11 -15 25 -20 25 -9 26 -14 29 -83 1 -16 8 -32 16
-37 13 -8 11 -12 -7 -25 -13 -9 -23 -25 -23 -35 0 -10 -6 -21 -12 -23 -7 -3
1125 -6 2515 -6 2404 -1 2527 0 2519 17 -5 9 -8 31 -7 47 3 39 -11 66 -30 59
-10 -4 -15 0 -15 15 0 23 -22 28 -42 8 -17 -16 -88 -38 -101 -30 -10 6 58 43
80 43 7 0 13 9 13 20 0 24 -22 26 -40 5 -7 -8 -31 -20 -54 -25 -22 -6 -79 -22
-125 -36 -46 -14 -109 -30 -140 -36 -31 -5 -78 -14 -106 -19 -203 -38 -535
-51 -710 -29 -135 18 -215 33 -215 41 0 5 -11 9 -25 9 -13 0 -48 10 -77 23
-29 13 -73 32 -98 42 -25 10 -52 25 -61 32 -8 7 -20 13 -25 13 -5 0 -22 11
-38 25 -16 14 -32 25 -36 25 -3 0 -34 26 -68 58 -60 55 -78 78 -101 129 -5 11
-15 24 -20 28 -6 3 -11 17 -11 29 0 13 -7 29 -15 36 -11 9 -13 26 -8 74 3 33
8 63 10 66 11 12 23 -31 23 -81 0 -38 5 -61 15 -69 8 -7 15 -23 15 -36 0 -13
4 -24 9 -24 5 0 12 -8 15 -17 20 -55 72 -113 134 -150 23 -14 42 -29 42 -34 0
-5 9 -9 20 -9 11 0 20 -4 20 -10 0 -5 12 -13 28 -16 15 -4 32 -10 37 -14 19
-13 105 -42 138 -46 58 -7 123 -20 135 -28 23 -14 81 -18 317 -23 159 -3 270
-1 330 7 87 12 188 20 230 19 81 -3 124 1 169 14 28 9 80 21 116 27 36 7 81
18 100 25 88 32 106 41 113 52 4 7 18 13 31 13 13 0 30 7 37 16 10 12 25 15
56 11 36 -4 43 -2 43 13 0 19 17 30 38 23 6 -3 12 -11 12 -18 0 -20 38 -25 52
-7 9 11 10 16 2 19 -6 2 -20 10 -30 18 -17 13 -15 14 29 15 26 0 47 5 47 10 0
6 -6 10 -14 10 -8 0 -16 7 -20 15 -4 10 1 15 15 15 11 0 22 -6 25 -14 3 -8 15
-16 26 -19 21 -6 16 -27 -6 -27 -8 0 -16 -10 -19 -21 -4 -14 -11 -20 -21 -16
-8 3 -18 2 -22 -4 -3 -6 3 -13 15 -16 12 -3 21 -9 21 -14 0 -15 18 -10 37 10
25 25 74 48 96 44 9 -3 17 0 17 6 0 6 16 11 35 11 23 0 35 5 35 14 0 9 7 12
20 9 12 -3 20 0 20 6 0 7 4 10 9 7 5 -3 11 1 15 9 8 21 24 19 31 -5 7 -21 51
-28 57 -9 2 5 22 13 46 16 43 6 48 13 43 65 -1 9 3 19 9 23 6 3 7 11 4 17 -8
13 14 28 44 28 16 0 26 -7 29 -20 9 -34 23 -22 23 20 0 22 -4 40 -10 40 -5 0
-10 14 -10 30 0 27 3 30 34 30 21 0 36 6 40 15 5 13 27 15 134 14 81 -1 136 2
150 10 21 11 40 11 207 -8 50 -5 128 -10 174 -11 46 0 92 -5 102 -10 10 -6 25
-7 33 -4 9 4 23 1 31 -6 16 -13 39 -4 29 12 -4 6 -2 8 4 4 6 -3 13 -2 17 3 9
16 66 -9 63 -28 -2 -10 4 -16 17 -16 11 -1 27 -5 35 -10 8 -5 38 -13 65 -17
28 -3 87 -12 131 -19 73 -11 86 -10 119 5 38 18 73 18 165 -2 132 -29 186 -43
200 -48 44 -18 151 -40 156 -32 7 11 53 2 72 -15 7 -6 37 -9 65 -8 29 1 86 -5
127 -13 141 -30 319 -38 399 -20 76 18 145 18 161 -1 7 -8 18 -15 24 -15 6 0
34 -12 61 -26 28 -15 70 -30 95 -34 l45 -7 -38 -2 c-53 -2 -37 -21 17 -21 27
0 48 6 56 15 17 21 27 19 33 -6 9 -32 50 -22 51 13 2 25 46 78 65 78 5 0 25
13 46 30 20 16 45 32 56 35 11 4 17 10 14 15 -6 9 28 32 42 28 14 -4 108 36
116 49 4 7 21 13 37 13 34 0 38 15 13 42 -13 15 -14 21 -5 27 18 11 4 41 -25
52 -37 14 -47 11 -32 -8 13 -15 11 -16 -21 -11 -44 7 -60 1 -60 -21 0 -10 14
-22 35 -30 19 -7 35 -17 35 -22 0 -13 -27 -11 -36 2 -3 6 -18 8 -33 5 -14 -3
-20 -3 -13 0 10 5 10 9 1 20 -13 16 -39 19 -39 4 0 -14 -58 -26 -115 -25 -27
1 -94 -4 -148 -11 -130 -18 -301 -27 -267 -14 18 7 -2 9 -75 8 -178 -1 -241 2
-227 11 11 7 10 10 -3 15 -26 9 -57 7 -50 -4 10 -16 -44 -12 -126 9 -117 30
-216 43 -341 44 -48 1 -68 5 -68 14 0 18 -43 26 -99 19 -50 -7 -85 0 -76 14 3
5 -25 11 -62 15 -38 3 -79 11 -93 16 -14 5 -68 13 -120 19 -52 5 -115 14 -140
20 -25 6 -78 15 -119 21 -41 5 -82 14 -92 19 -10 6 -32 10 -49 10 -17 0 -40 5
-51 11 -11 5 -48 15 -82 20 -34 5 -107 21 -162 36 -55 14 -118 29 -140 33 -92
18 -215 55 -212 65 5 15 86 18 103 4 11 -9 18 -9 26 -1 17 17 53 15 68 -3 14
-16 67 -20 89 -6 9 6 11 18 6 40 -4 20 -3 31 4 31 21 0 11 16 -22 33 -18 10
-66 24 -107 32 -41 8 -88 17 -105 21 -16 3 -61 12 -100 20 -38 7 -112 23 -164
34 -134 28 -132 29 -117 -22 18 -62 11 -129 -18 -185 -14 -26 -26 -54 -26 -61
0 -7 -4 -20 -9 -30 -9 -16 -15 -32 -21 -57 -1 -5 -11 -21 -21 -34 -11 -13 -19
-32 -19 -41 0 -10 -7 -23 -15 -30 -8 -7 -15 -19 -15 -26 0 -8 -4 -14 -10 -14
-5 0 -10 -7 -10 -15 0 -9 -7 -18 -15 -21 -8 -4 -15 -12 -15 -19 0 -7 -10 -15
-22 -18 -18 -5 -19 -8 -8 -21 10 -14 9 -16 -8 -16 -11 0 -22 -6 -25 -14 -3 -8
-22 -19 -41 -26 -20 -6 -36 -16 -36 -21 0 -5 -25 -23 -55 -40 -30 -17 -55 -34
-55 -39 0 -4 -16 -11 -35 -14 -19 -4 -35 -11 -35 -16 0 -6 -9 -10 -20 -10 -28
0 -25 18 4 26 14 3 32 14 41 24 15 16 14 19 -9 38 -33 26 -33 37 4 59 17 9 30
21 30 25 0 5 11 13 24 18 28 10 90 84 101 120 9 31 35 64 70 92 22 17 28 19
36 7 7 -12 13 -11 36 3 15 9 30 25 32 35 1 10 9 25 16 33 8 8 17 27 20 43 7
28 35 38 35 13 0 -8 4 -17 9 -20 7 -5 15 100 14 204 -1 61 -15 120 -29 120 -7
0 -11 6 -8 13 2 7 -7 26 -21 43 -14 16 -25 32 -25 36 0 4 -36 33 -80 65 -44
32 -80 61 -80 65 0 5 -8 8 -19 8 -10 0 -30 9 -45 21 -14 11 -31 17 -38 13 -7
-4 -10 -4 -6 1 9 9 -64 45 -91 45 -9 0 -21 4 -26 8 -16 14 -94 34 -105 27 -6
-3 -10 -2 -10 3 0 11 -147 43 -225 48 -386 24 -588 11 -875 -57 -85 -20 -276
-81 -308 -99 -15 -8 -82 -37 -199 -85 -23 -10 -50 -26 -59 -36 -10 -11 -26
-19 -36 -19 -11 0 -50 -20 -88 -45 -38 -25 -74 -45 -79 -45 -6 0 -11 -7 -11
-15 0 -9 -8 -19 -17 -22 -9 -4 -54 -43 -100 -87 -60 -58 -81 -85 -77 -98 3
-10 1 -18 -5 -18 -6 0 -11 6 -11 13 0 13 -49 -42 -50 -56 0 -5 -7 -15 -15 -24
-8 -8 -13 -19 -10 -24 4 -5 1 -9 -5 -9 -6 0 -15 -11 -20 -25 -5 -14 -14 -25
-20 -25 -5 0 -10 -11 -10 -24 0 -14 -4 -28 -10 -31 -5 -3 -10 -19 -10 -36 0
-45 -43 -36 -55 12 -5 19 -2 28 10 33 11 4 14 13 10 25 -3 10 1 24 10 31 8 7
15 21 15 32 0 10 7 21 15 24 8 4 15 17 15 30 0 14 11 42 24 63 24 37 113 121
129 121 5 0 27 19 50 42 24 24 70 62 103 85 70 49 209 123 229 123 8 0 15 4
15 10 0 13 173 95 220 105 19 4 40 10 45 14 18 12 217 76 285 91 179 39 296
58 490 78 85 8 291 -3 470 -27 94 -12 290 -59 305 -72 5 -5 14 -9 21 -9 7 0
38 -15 71 -33 66 -37 152 -72 159 -64 3 3 -9 11 -25 18 -17 8 -31 17 -31 21 0
5 -7 8 -15 8 -8 0 -15 4 -15 10 0 5 -6 9 -12 7 -7 -1 -12 4 -10 12 2 9 -4 12
-15 9 -10 -3 -31 1 -48 8 -23 10 -25 13 -10 14 28 1 -60 40 -90 40 -13 0 -25
5 -27 11 -2 6 -24 12 -48 13 -26 1 -44 6 -43 13 1 6 -13 10 -35 10 -20 0 -58
9 -85 21 -38 18 -57 21 -99 16 -33 -5 -49 -3 -45 3 7 11 -188 26 -323 24 -147
-1 -393 -19 -399 -29 -6 -9 -101 -24 -158 -25 -18 0 -33 -3 -33 -7 0 -13 -59
-9 -73 5 -18 17 -57 20 -57 4 0 -5 4 -8 9 -5 13 8 32 -19 25 -37 -6 -17 -40
-32 -94 -43 -19 -3 -42 -12 -52 -18 -13 -8 -23 -8 -38 2 -23 14 -60 16 -60 3
0 -5 10 -11 23 -14 21 -3 20 -4 -8 -16 -16 -7 -39 -10 -51 -7 -14 4 -24 1 -28
-9 -7 -19 -32 -19 -40 0 -3 8 -10 15 -17 15 -6 0 -9 -6 -6 -14 3 -8 -5 -18
-19 -25 -20 -9 -24 -8 -24 7 0 14 -7 16 -47 13 -27 -3 -40 -6 -30 -9 9 -2 17
-8 17 -13 0 -12 -27 -12 -35 1 -8 13 -99 -28 -188 -85 -40 -25 -81 -51 -91
-58 -28 -17 -56 -39 -80 -62 -20 -19 -20 -20 -1 -24 10 -2 21 1 23 7 2 6 19
16 37 22 19 6 37 20 40 31 8 23 31 25 39 2 4 -11 0 -20 -11 -27 -10 -5 -58
-49 -107 -98 -50 -48 -93 -88 -98 -88 -4 0 -8 -9 -8 -20 0 -11 -6 -19 -12 -18
-7 2 -14 -7 -16 -20 -2 -12 -8 -20 -13 -17 -5 4 -12 -1 -16 -10 -3 -9 -19 -31
-34 -48 -16 -17 -29 -37 -29 -44 0 -7 -4 -13 -10 -13 -5 0 -10 -6 -10 -14 0
-8 -6 -21 -13 -28 -11 -12 -87 -178 -101 -220 -14 -45 -48 4 -64 92 -8 43 -7
63 4 89 16 38 17 51 6 51 -10 0 -34 -46 -39 -75 -1 -11 -10 -52 -18 -91 -9
-39 -13 -86 -11 -105 12 -85 20 -116 37 -150 10 -20 15 -39 12 -43 -4 -3 6
-19 20 -34 15 -16 25 -31 21 -34 -3 -3 11 -19 30 -35 20 -15 36 -32 36 -38 1
-5 19 -22 40 -37 40 -28 51 -48 27 -48 -15 0 -59 29 -70 47 -4 7 -30 22 -57
34 -28 12 -50 28 -50 35 0 7 -18 23 -41 35 -34 17 -40 24 -36 45 3 19 0 24
-15 24 -23 0 -68 43 -68 64 0 8 -12 27 -26 41 -16 16 -23 32 -19 43 3 12 -2
26 -15 37 -23 20 -26 45 -8 63 9 9 7 17 -11 33 -17 16 -21 27 -16 48 4 14 9
49 10 76 4 68 19 141 33 158 6 7 13 36 14 63 3 45 5 49 29 52 20 2 26 8 22 21
-6 23 95 149 174 216 32 27 87 79 123 116 36 36 86 78 113 93 26 16 47 31 47
35 0 3 15 12 33 20 17 7 50 21 72 31 83 37 112 47 185 65 41 9 81 22 87 27 7
6 20 8 28 4 9 -3 18 1 21 9 3 7 36 21 73 29 37 9 81 22 97 31 16 8 39 15 52
15 13 0 32 5 42 10 12 7 27 7 45 0 14 -5 24 -6 21 -1 -3 5 0 13 7 18 14 11
223 49 352 64 184 21 219 26 193 28 -40 2 -76 18 -104 46 -26 26 -58 32 -84
15 -11 -7 -5 -10 25 -10 30 0 36 -3 25 -10 -12 -8 -11 -10 7 -10 44 0 32 -20
-22 -35 -56 -17 -92 -14 -80 5 7 11 -10 31 -41 48 -29 15 -98 4 -112 -19 -10
-16 -9 -19 7 -19 23 0 32 -19 19 -42 -6 -13 -21 -18 -48 -18 -44 0 -59 14 -33
29 17 9 17 10 1 16 -20 8 -25 35 -6 35 6 0 9 2 6 5 -9 9 -38 -6 -38 -20 0 -7
-11 -16 -25 -19 -17 -4 -25 -12 -23 -24 2 -13 -5 -18 -32 -20 -46 -4 -87 -20
-94 -38 -3 -8 -20 -14 -41 -14 -36 0 -43 8 -24 27 14 14 2 36 -17 29 -7 -3
-16 -1 -19 4 -4 6 -1 10 4 10 6 0 11 5 11 11 0 7 -7 8 -17 4 -10 -4 -49 -15
-88 -26 -161 -42 -203 -55 -218 -67 -12 -10 -29 -11 -75 -2 -48 8 -64 8 -88
-5 -16 -8 -35 -15 -41 -15 -23 0 -14 -38 10 -46 21 -7 21 -7 2 -15 -13 -6 -5
-7 22 -3 34 4 44 2 49 -10 4 -10 18 -16 35 -16 16 0 29 -3 29 -7 -1 -5 -45
-28 -98 -53 -53 -25 -106 -53 -117 -63 -11 -10 -36 -27 -55 -37 -57 -30 -227
-180 -297 -262 -25 -29 -49 -54 -54 -56 -5 -2 -9 -10 -9 -18 0 -8 -3 -14 -8
-14 -4 0 -16 -17 -27 -37 -11 -20 -25 -41 -30 -47 -15 -16 -73 -136 -81 -168
-3 -15 -12 -32 -20 -39 -8 -6 -14 -22 -14 -35 0 -13 -4 -24 -10 -24 -5 0 -10
9 -10 19 0 11 5 23 10 26 6 3 10 30 10 60 0 30 5 57 10 60 6 3 10 17 10 29 0
13 7 29 15 36 8 7 15 18 15 25 0 7 7 18 15 25 8 7 15 21 15 31 0 11 4 19 8 19
4 0 16 15 27 32 21 37 134 152 209 213 64 52 70 70 36 107 l-27 29 -45 -21
c-52 -24 -118 -90 -118 -117 0 -10 5 -24 11 -30 8 -8 -3 -13 -40 -18 -34 -5
-55 -13 -61 -25 -5 -10 -16 -24 -23 -32 -34 -35 -76 -96 -70 -101 3 -4 -2 -9
-11 -13 -9 -3 -16 -15 -16 -25 0 -11 -6 -22 -14 -25 -8 -3 -17 -20 -20 -38 -4
-18 -15 -41 -26 -51 -11 -10 -20 -26 -20 -37 0 -10 -4 -18 -10 -18 -5 0 -10 5
-10 11 0 5 -4 8 -9 5 -22 -14 -30 -203 -10 -265 38 -121 104 -211 232 -315 56
-46 56 -58 -2 -22 -22 14 -43 26 -46 26 -13 0 -113 82 -156 126 -82 88 -109
134 -136 234 -39 141 4 351 108 529 8 14 29 40 47 58 17 19 32 39 32 46 0 7
12 23 28 35 28 24 219 170 256 197 20 15 20 15 -14 10 l-35 -6 26 14 c15 8 39
12 53 10 23 -5 26 -2 26 22 0 19 6 28 21 32 15 4 17 8 8 14 -8 4 -10 11 -6 16
4 4 16 2 27 -4 14 -10 26 -8 59 7 22 11 45 20 52 20 11 0 52 16 124 50 109 50
409 136 445 127 12 -3 20 0 20 8 0 17 36 26 85 20 28 -4 34 -3 20 3 -16 7 -7
11 38 16 31 4 57 12 57 17 0 5 11 9 24 9 51 0 74 23 35 35 -17 6 -18 9 -7 22
36 43 148 58 170 23 7 -11 20 -20 30 -20 9 0 20 -4 23 -10 3 -5 23 -9 43 -9
21 1 28 3 17 6 -19 4 -54 40 -55 54 0 4 24 10 54 13 68 9 99 -4 90 -38 -6 -27
6 -39 30 -30 10 4 14 13 11 24 -4 13 3 21 25 30 35 14 38 25 11 40 -25 13 -70
13 -108 -1 -24 -8 -39 -7 -69 6 -28 11 -35 18 -25 24 9 6 10 11 2 15 -10 7
-16 5 -78 -28 -27 -14 -40 -15 -102 -4 -64 11 -72 10 -90 -6 -24 -22 -100 -32
-128 -18 -20 11 -123 2 -213 -18 -151 -34 -302 -73 -350 -92 -315 -121 -544
-243 -695 -369 -52 -44 -185 -180 -185 -190 0 -5 -18 -27 -41 -50 -87 -89 -68
22 21 121 27 30 50 58 50 63 0 4 6 7 14 7 8 0 24 11 35 25 53 69 320 252 402
276 21 7 47 20 58 31 11 10 25 18 32 18 12 0 71 31 79 41 3 4 24 10 48 14 61
10 54 29 -8 22 -27 -3 -52 -2 -55 3 -6 9 -38 -2 -120 -41 -22 -10 -45 -19 -51
-19 -6 0 -22 -9 -36 -19 -13 -11 -52 -33 -86 -51 -34 -17 -62 -35 -62 -41 0
-5 -7 -9 -15 -9 -25 0 -206 -139 -290 -224 -94 -95 -162 -182 -194 -248 -13
-27 -27 -50 -32 -54 -5 -3 -9 -15 -9 -26 0 -12 -7 -29 -15 -38 -9 -10 -18 -41
-22 -69 -3 -29 -10 -50 -16 -48 -15 5 -20 116 -6 152 23 63 54 125 61 125 5 0
8 9 8 20 0 11 4 20 8 20 11 0 55 60 49 67 -3 2 -20 -3 -37 -12 -18 -9 -30 -13
-28 -8 7 12 117 243 133 278 7 17 32 70 56 119 23 49 42 105 43 124 1 32 -2
36 -39 46 -22 7 -38 16 -36 21 2 5 -12 18 -30 28 -19 11 -35 23 -37 28 -2 5
-9 9 -16 9 -7 0 -23 11 -35 24 -34 36 -57 38 -81 8 l-19 -27 -1 36 c0 54 -25
72 -89 64 -52 -6 -52 -5 -66 29 -8 19 -22 39 -31 44 -10 6 -15 16 -11 25 4 10
0 17 -11 19 -13 2 -17 14 -17 43 0 47 -4 48 -122 35z m-219 -144 c37 -19 17
-33 -61 -42 -53 -5 -64 -4 -69 10 -7 17 -54 23 -54 6 0 -5 9 -10 20 -10 24 0
27 -15 4 -24 -27 -11 -46 -7 -41 8 8 21 -23 29 -43 11 -9 -8 -21 -15 -27 -15
-6 0 -13 -9 -16 -20 -6 -23 -37 -27 -37 -5 0 9 7 18 15 21 8 4 15 12 15 19 0
41 232 74 294 41z m64 -98 c42 -20 47 -27 50 -59 3 -33 0 -37 -25 -44 l-28 -7
23 -12 23 -12 -38 -27 c-58 -40 -107 -57 -163 -57 -36 0 -52 4 -56 15 -4 9
-19 15 -41 15 -29 0 -33 2 -24 14 13 16 -2 32 -20 21 -18 -12 -51 36 -44 65 9
35 30 55 83 81 94 44 182 46 260 7z m328 -285 c8 -11 13 -47 14 -94 0 -65 -3
-79 -21 -95 -12 -10 -30 -36 -40 -56 -10 -20 -27 -39 -38 -43 -13 -4 -17 -12
-14 -25 4 -13 -1 -19 -19 -22 -17 -2 -24 -10 -26 -31 -3 -21 -8 -27 -22 -25
-10 2 -30 -10 -45 -26 -21 -23 -29 -26 -35 -16 -11 18 -6 78 8 92 6 6 8 16 6
22 -2 6 4 21 14 32 11 11 22 36 26 56 3 20 13 41 20 47 8 7 17 27 20 45 4 18
14 43 24 54 9 11 26 31 37 44 11 12 20 28 21 33 0 6 2 13 2 18 3 14 55 7 68
-10z m2058 -928 c3 -8 12 -15 21 -15 22 0 18 -37 -5 -50 -11 -6 -20 -18 -20
-28 0 -9 -9 -23 -20 -30 -11 -6 -29 -29 -40 -49 -12 -21 -32 -56 -45 -78 -21
-36 -36 -119 -17 -101 4 4 12 -14 17 -41 8 -33 17 -51 32 -58 12 -5 24 -20 28
-32 3 -13 10 -23 16 -23 6 0 28 -17 50 -37 76 -73 246 -108 514 -106 267 1
444 43 600 142 17 11 36 20 43 20 6 1 20 9 30 19 11 9 56 50 100 90 45 41 82
80 82 87 0 7 7 15 14 18 8 3 20 25 26 48 7 23 18 52 25 63 16 24 23 106 11
125 -11 17 -2 24 22 17 11 -4 25 -24 32 -47 8 -22 22 -45 32 -50 10 -5 18 -18
18 -29 0 -10 5 -22 10 -25 18 -11 11 -74 -10 -95 -24 -24 -26 -50 -5 -50 9 0
18 12 22 30 3 17 9 33 13 35 14 8 40 -6 40 -22 0 -20 -45 -84 -53 -76 -4 3 -7
1 -7 -5 0 -7 -7 -12 -16 -12 -11 0 -13 -6 -9 -19 6 -19 -2 -30 -50 -66 -14
-11 -34 -28 -44 -37 -9 -10 -40 -29 -67 -43 -42 -21 -51 -23 -60 -10 -16 22
-54 8 -54 -21 0 -18 -6 -24 -21 -24 -16 0 -20 5 -16 20 4 17 0 20 -28 20 -44
0 -65 -9 -65 -27 0 -17 -39 -52 -57 -53 -20 0 -15 -16 8 -27 20 -8 15 -12 -46
-42 -38 -17 -91 -38 -119 -46 -28 -8 -76 -21 -106 -29 -100 -27 -308 -48 -405
-42 -202 15 -217 17 -375 68 -113 36 -193 91 -270 185 -23 28 -47 83 -55 125
-4 21 -12 35 -17 32 -6 -4 -8 2 -3 15 5 15 1 29 -11 42 -18 20 -18 22 -1 51 9
16 17 36 17 43 0 22 44 85 57 80 6 -2 14 7 17 21 5 17 13 24 30 24 22 0 81 40
97 65 16 25 65 73 75 74 7 1 14 -6 18 -14z m-2920 -498 c21 -27 26 -45 27
-101 1 -49 -2 -71 -13 -83 -40 -39 -98 41 -98 136 0 40 4 53 22 65 30 22 33
21 62 -17z"/>
<path d="M6004 2570 c-24 -24 -327 -33 -583 -19 -45 3 -66 0 -68 -8 -3 -9 6
-13 24 -13 16 0 34 -5 40 -11 9 -9 19 -9 42 1 16 6 35 9 41 5 6 -4 35 -10 63
-15 51 -8 90 -19 155 -46 29 -12 31 -16 20 -34 -20 -32 -72 -51 -169 -61 -50
-5 -96 -12 -102 -16 -23 -15 69 -22 145 -12 86 12 135 37 144 74 3 14 10 25
15 25 5 0 9 7 9 16 0 13 12 15 73 13 64 -1 79 2 134 30 35 18 65 37 68 42 4 5
15 9 26 9 10 0 19 4 19 8 0 5 -13 7 -29 4 -16 -2 -32 1 -35 7 -9 14 -19 14
-32 1z"/>
<path d="M9844 2542 c-21 -8 -56 -15 -76 -15 -26 1 -36 -3 -31 -10 19 -31 -1
-68 -28 -52 -5 4 -19 -3 -31 -14 -12 -12 -17 -21 -12 -21 6 0 14 4 20 9 5 5
27 6 49 2 l40 -7 -54 -16 c-53 -16 -55 -16 -77 5 -20 19 -21 22 -6 33 23 17 6
31 -18 16 -28 -17 -53 -15 -46 3 6 18 -3 18 -99 4 -114 -16 -128 -19 -165 -28
-33 -8 -32 -9 23 -10 54 -1 77 -14 40 -24 -10 -3 10 -5 45 -6 35 -1 62 3 62 9
0 6 -16 10 -36 10 -22 0 -33 4 -29 11 11 17 57 31 83 24 20 -5 22 -8 12 -20
-10 -12 -8 -15 11 -15 23 -1 23 -1 -5 -17 -24 -12 -26 -17 -14 -24 8 -5 31 -9
49 -10 19 -1 43 -5 54 -9 43 -16 92 -30 104 -30 7 0 29 -7 49 -16 67 -29 77
-33 115 -39 20 -3 37 -10 37 -14 0 -5 8 -12 18 -15 9 -3 28 -13 42 -21 14 -8
26 -10 28 -5 2 6 11 10 20 9 11 0 12 -2 5 -6 -7 -2 -13 -9 -13 -14 0 -13 50
-31 68 -24 13 5 13 8 -1 23 -8 9 -18 31 -21 49 -4 17 -14 34 -22 37 -8 3 -14
18 -14 34 0 16 -9 37 -20 47 -11 10 -20 27 -20 38 0 10 -11 28 -24 38 -14 11
-27 32 -31 47 -9 42 -34 53 -81 34z"/>
<path d="M3940 2525 c0 -20 30 -59 61 -81 46 -31 49 -51 12 -60 -41 -11 -93
22 -93 57 0 23 -3 27 -17 22 -42 -16 -58 -53 -23 -53 11 0 20 -4 20 -10 0 -5
-5 -10 -12 -10 -8 0 -6 -6 5 -17 13 -13 37 -17 112 -18 88 -1 110 4 85 20 -5
3 -10 15 -10 26 0 16 5 19 20 14 32 -10 23 11 -10 25 -16 7 -30 16 -30 21 0 5
-7 9 -15 9 -8 0 -15 5 -15 10 0 6 -10 10 -22 10 -12 0 -18 3 -15 7 8 7 -23 32
-40 33 -7 0 -13 -2 -13 -5z"/>
<path d="M10393 2512 c-8 -5 -12 -24 -9 -48 3 -34 11 -60 46 -139 4 -11 8 -42
8 -68 -1 -32 4 -52 13 -57 15 -10 18 -45 7 -72 -4 -9 -3 -30 3 -48 8 -22 8
-35 1 -42 -17 -17 3 -45 37 -53 35 -7 55 -29 48 -50 -4 -8 -1 -17 5 -21 7 -5
5 -12 -7 -21 -17 -12 -15 -13 23 -13 71 0 150 -50 138 -88 -5 -16 0 -21 25
-26 23 -4 30 -10 25 -22 -5 -13 -2 -15 16 -9 13 4 40 7 61 7 23 -1 35 2 32 8
-3 6 3 10 14 10 10 0 21 -4 23 -9 2 -6 48 -11 103 -12 58 -2 113 -9 130 -17
90 -41 142 -84 137 -114 -2 -10 0 -18 5 -18 27 0 104 28 208 75 47 21 212 85
220 85 4 0 21 6 38 14 18 8 64 27 102 41 39 15 124 53 190 85 66 32 131 62
145 66 14 3 32 12 40 19 8 7 25 16 38 19 12 4 22 12 22 17 0 5 9 9 20 9 23 0
57 13 127 49 56 27 66 41 33 41 -25 0 -26 26 -1 33 11 2 24 -3 32 -14 18 -25
61 -24 84 1 10 11 34 23 54 26 20 4 41 14 48 23 7 9 13 12 13 7 0 -12 40 24
40 36 0 5 -4 7 -8 4 -5 -3 -18 4 -30 14 -33 31 -49 26 -48 -17 1 -41 -19 -54
-58 -35 -11 6 -28 13 -36 15 -12 4 -11 6 3 6 19 1 23 16 5 27 -6 4 -16 0 -23
-9 -7 -10 -17 -17 -24 -17 -16 0 -14 -20 3 -26 20 -8 29 -34 11 -34 -7 0 -15
8 -17 17 -2 13 -14 17 -51 18 -32 0 -46 -4 -43 -12 3 -6 -11 -15 -32 -20 -41
-10 -59 -43 -23 -43 12 0 21 -4 21 -10 0 -22 -67 -5 -75 20 -3 11 -16 17 -35
18 -25 1 -30 -3 -30 -22 0 -38 -79 -63 -102 -31 -5 6 -8 5 -8 -2 0 -7 -9 -13
-19 -13 -11 0 -23 -4 -26 -10 -3 -5 -11 -10 -16 -10 -6 0 -8 4 -4 9 3 5 -21
15 -52 22 -90 19 -106 39 -50 65 30 14 31 15 4 9 -25 -5 -28 -3 -22 15 4 11 2
20 -4 20 -6 0 -11 6 -11 14 0 8 -5 16 -11 18 -5 2 -11 36 -12 78 l-2 75 58 3
c58 3 82 22 27 22 -27 0 -30 2 -20 19 9 18 5 20 -48 28 -71 10 -276 10 -677 1
-563 -14 -764 -13 -782 4 -11 12 -12 20 -4 36 6 10 7 22 4 26 -9 9 -56 7 -70
-2z"/>
<path d="M13330 2483 c-65 -7 -80 -13 -80 -33 0 -23 -28 -27 -36 -5 -4 8 -16
15 -28 15 -27 0 -116 -34 -124 -48 -4 -5 -22 -9 -40 -8 -18 1 -37 -3 -43 -10
-5 -6 -37 -18 -70 -25 -49 -11 -63 -18 -70 -38 -8 -18 -13 -21 -21 -13 -18 18
-68 15 -68 -3 0 -8 4 -15 10 -15 5 0 7 -7 4 -15 -4 -8 -1 -15 5 -15 7 0 3 -10
-9 -22 -11 -12 -20 -27 -19 -32 0 -7 2 -7 5 0 3 6 16 9 30 6 23 -4 25 -2 19
17 -5 16 -2 21 12 21 15 0 16 2 3 10 -12 7 -11 10 7 17 12 4 22 13 22 18 0 6
16 11 35 13 26 2 33 7 29 18 -5 15 5 18 31 8 11 -4 14 -13 10 -30 -5 -18 -2
-24 9 -24 22 0 68 21 91 42 10 10 23 15 28 12 5 -3 18 2 30 13 11 10 22 17 24
16 17 -11 13 1 -6 17 -28 24 -6 28 28 5 20 -14 21 -14 16 0 -3 8 -1 15 5 15 6
0 11 -7 11 -15 0 -13 4 -12 21 4 12 11 40 24 63 29 64 14 71 17 76 23 3 3 19
13 35 22 32 17 29 18 -45 10z"/>
<path d="M3328 2384 c-2 -1 -241 -5 -533 -8 -291 -4 -566 -8 -610 -11 -44 -2
-492 -7 -995 -10 -503 -3 -977 -8 -1052 -12 l-138 -6 0 -333 0 -334 28 -1 c78
-1 209 -10 220 -14 6 -2 12 0 12 6 0 6 4 7 10 4 6 -3 7 1 4 9 -4 12 0 16 15
16 18 0 20 -3 13 -17 -21 -36 20 -41 375 -43 186 -1 343 -1 348 0 6 1 60 1
120 0 61 0 132 3 160 9 33 6 54 6 62 -1 7 -6 75 -7 180 -4 92 4 183 6 200 7
18 0 32 4 31 7 -2 10 121 135 162 164 73 52 254 133 370 167 180 53 209 60
280 75 226 47 866 108 921 88 24 -9 -3 -14 -146 -27 -133 -11 -278 -42 -269
-56 3 -5 -5 -9 -18 -9 -13 0 -29 -5 -36 -12 -7 -7 -38 -12 -70 -13 l-57 0 1
-37 c0 -20 -3 -36 -7 -35 -9 3 -99 -54 -99 -62 0 -3 5 -13 10 -21 9 -13 11
-13 20 0 8 13 55 15 302 17 161 2 299 5 306 8 7 3 25 -1 40 -9 28 -14 56 -11
47 4 -3 5 -1 11 5 15 5 3 10 1 10 -4 0 -6 9 -11 20 -11 11 0 20 -3 20 -7 0 -9
77 -93 84 -93 3 0 30 -25 61 -55 30 -30 57 -55 60 -55 3 0 5 27 5 60 0 32 5
71 12 85 9 19 9 28 0 37 -7 7 -12 21 -12 33 0 11 -9 31 -20 45 l-20 25 0 -27
c0 -18 -5 -28 -15 -28 -17 0 -20 25 -5 35 6 4 8 11 5 16 -4 5 3 22 14 38 12
16 21 34 21 40 0 6 7 11 16 11 8 0 12 5 9 10 -4 7 -11 7 -18 2 -18 -14 -47
-22 -47 -14 0 5 8 17 18 28 31 36 41 60 30 75 -7 11 -11 11 -15 2 -7 -18 -51
-16 -55 2 -2 10 -7 12 -18 5 -11 -8 -12 -12 -3 -18 17 -11 4 -54 -15 -50 -8 2
-20 12 -26 23 -6 11 -15 23 -21 27 -6 4 -10 58 -9 127 l1 120 -148 -1 c-82 -1
-150 -2 -151 -4z"/>
<path d="M2290 1890 c-69 -9 -159 -42 -225 -82 -27 -17 -52 -34 -55 -37 -3 -4
-17 -14 -32 -24 -17 -11 -25 -23 -22 -32 4 -8 10 -13 15 -10 13 9 39 -49 32
-73 -3 -12 -2 -29 1 -38 6 -15 9 -14 26 6 11 13 20 31 20 41 0 10 15 28 33 40
17 13 51 39 74 60 24 20 58 40 75 45 64 15 74 19 120 49 54 34 64 66 21 64
-16 -1 -53 -5 -83 -9z"/>
<path d="M5915 1810 c-16 -10 -49 -19 -71 -19 -24 -1 -47 -7 -54 -16 -16 -20
-27 -19 -56 4 -20 16 -35 18 -87 14 -35 -3 -67 -11 -73 -19 -6 -8 -13 -12 -15
-10 -2 2 -33 6 -69 9 -36 2 -73 8 -83 12 -9 4 -38 4 -63 0 l-46 -7 27 -14 c15
-8 35 -14 45 -14 10 0 20 -7 24 -15 3 -8 12 -15 21 -15 8 0 15 -4 15 -10 0 -5
19 -10 43 -11 35 0 38 -2 20 -9 -13 -5 -23 -11 -23 -14 0 -2 23 -12 51 -21 47
-16 55 -16 132 0 45 10 96 20 112 22 17 3 44 11 62 19 17 8 36 14 43 14 6 0
24 7 40 15 30 16 40 48 19 60 -7 5 -4 14 7 26 21 23 18 23 -21 -1z"/>
<path d="M1840 1361 c0 -11 -5 -23 -11 -26 -15 -10 -4 -79 21 -129 23 -48 112
-141 155 -163 17 -9 32 -19 35 -23 6 -8 138 -68 215 -98 31 -12 64 -17 88 -14
20 2 51 -1 67 -8 26 -11 33 -10 49 4 22 20 77 21 134 1 25 -8 55 -15 68 -14
48 1 185 -12 209 -21 14 -5 82 -12 152 -15 144 -6 162 -11 206 -54 18 -18 41
-31 56 -31 27 0 43 15 26 25 -27 17 11 26 106 24 77 -1 109 -5 120 -16 8 -8
12 -18 9 -23 -4 -7 94 -20 150 -20 11 0 37 0 58 -1 20 0 37 5 37 11 0 5 5 10
11 10 7 0 8 -11 4 -29 -3 -16 -2 -32 3 -35 5 -3 7 -27 4 -54 -4 -44 -2 -50 22
-65 14 -10 26 -23 26 -30 1 -14 78 -52 88 -42 4 3 -4 14 -17 24 -19 15 -22 21
-12 38 9 18 6 24 -23 44 -56 38 -72 84 -26 72 23 -6 36 18 25 45 -5 9 -7 24
-6 32 1 9 -10 27 -23 39 -21 20 -28 22 -41 11 -26 -21 -59 3 -94 66 -17 31
-28 61 -25 65 3 5 -2 9 -10 9 -9 0 -16 7 -16 15 0 22 6 19 50 -25 22 -22 49
-40 61 -40 15 0 19 -5 15 -18 -5 -16 -2 -18 22 -14 23 3 30 -1 35 -17 3 -15
13 -21 31 -21 14 0 35 -9 46 -20 22 -22 40 -26 40 -10 0 6 -11 16 -25 22 -19
9 -24 18 -22 42 1 17 6 34 12 38 19 14 -24 75 -58 82 -16 3 -27 9 -24 12 3 4
-1 20 -9 36 -14 27 -13 31 6 55 25 32 18 88 -14 115 -16 14 -18 20 -8 26 7 5
10 16 7 25 -11 28 -34 27 -55 -2 -24 -35 -25 -47 -5 -55 8 -3 15 -15 15 -26 0
-12 5 -30 11 -41 14 -27 2 -62 -19 -54 -9 3 -34 8 -57 11 -34 5 -44 2 -68 -20
-32 -30 -43 -32 -51 -11 -9 24 -39 19 -31 -5 12 -38 -29 -42 -335 -37 -157 3
-312 10 -345 15 -33 6 -141 23 -240 37 -99 15 -196 33 -215 40 -19 8 -66 21
-104 30 -69 17 -158 53 -164 68 -2 4 -8 4 -14 1 -5 -3 -25 8 -43 26 -22 22
-38 29 -47 24 -23 -15 -40 -13 -34 2 7 20 -23 31 -35 13 -7 -11 -9 -11 -9 3 0
10 -26 29 -71 52 -81 42 -89 43 -89 17z"/>
<path d="M3790 521 c-13 -25 -13 -46 0 -69 22 -38 33 -80 36 -137 2 -33 10
-78 18 -100 12 -34 28 -106 30 -140 1 -5 7 -25 15 -42 l13 -33 477 0 476 1
-50 20 c-27 11 -93 33 -145 49 -164 49 -217 71 -389 158 -57 28 -116 52 -131
52 -15 0 -35 9 -45 20 -10 11 -24 20 -31 20 -16 0 -84 79 -84 97 0 8 -15 20
-32 28 -18 7 -51 32 -73 54 -43 45 -69 51 -85 22z"/>
</g>
</svg>
